<?xml version="1.0" encoding="UTF-8"?>
<svg width="279px" height="91px" viewBox="0 0 279 91" version="1.1" xmlns="http://www.w3.org/2000/svg" xmlns:xlink="http://www.w3.org/1999/xlink">
    <!-- Generator: Sketch 48.2 (47327) - http://www.bohemiancoding.com/sketch -->
    <title>Group Copy 3stars/</title>
    <desc>Created with Sketch.</desc>
    <defs></defs>
    <g id="Screen" stroke="none" stroke-width="1" fill="none" fill-rule="evenodd">
        <g id="Group-Copy-3" stroke="#EEC765">
            <polygon id="Star" points="138.189091 55.5 116.441037 66.9336288 120.594546 42.7168144 103 25.5663712 127.315064 22.0331856 138.189091 0 149.063118 22.0331856 173.378182 25.5663712 155.783637 42.7168144 159.937145 66.9336288"></polygon>
            <polygon id="Star-Copy" points="208 67.7386068 190.077014 77.1612779 193.5 57.2037401 179 43.0697333 199.038507 40.1579678 208 22 216.961493 40.1579678 237 43.0697333 222.5 57.2037401 225.922986 77.1612779"></polygon>
            <polygon id="Star-Copy-3" points="71 67.7386068 53.0770143 77.1612779 56.5 57.2037401 42 43.0697333 62.0385072 40.1579678 71 22 79.9614928 40.1579678 100 43.0697333 85.5 57.2037401 88.9229857 77.1612779"></polygon>
            <polygon id="Star-Copy-2" points="258 83.1210601 245.021286 89.9443737 247.5 75.4923635 237 65.2573931 251.510643 63.1488732 258 50 264.489357 63.1488732 279 65.2573931 268.5 75.4923635 270.978714 89.9443737"></polygon>
            <polygon id="Star-Copy-4" points="21 83.1210601 8.02128624 89.9443737 10.5 75.4923635 4.4408921e-16 65.2573931 14.5106431 63.1488732 21 50 27.4893569 63.1488732 42 65.2573931 31.5 75.4923635 33.9787138 89.9443737"></polygon>
        </g>
    </g>
</svg>