<?xml version="1.0" encoding="utf-8"?>
<!-- Generator: Adobe Illustrator 22.0.1, SVG Export Plug-In . SVG Version: 6.00 Build 0)  -->
<svg version="1.1" id="Layer_1" xmlns="http://www.w3.org/2000/svg" xmlns:xlink="http://www.w3.org/1999/xlink" x="0px" y="0px"
	 viewBox="0 0 186 90" style="enable-background:new 0 0 186 90;" xml:space="preserve">
<style type="text/css">
	.st0{enable-background:new    ;}
	.st1{fill:#FFFFFF;}
	.st2{fill:#2774FE;}
</style>
<title>Group 4</title>
<desc>Created with Sketch.</desc>
<g id="Screen" transform="translate(-96.000000, -270.000000)">
	<g id="Group-4" transform="translate(93.000000, 260.000000)">
		<g class="st0">
			<path class="st1" d="M146.2,94.8L146.2,94.8c3.6,0.3,4.3,2.5,8,2.1l-0.3,2.6c-3.9,0.4-6.5-2.4-9.6-2.6c-0.6-0.1-1.3,0-2.1,0.1
				l0.4-1.9c-4.2-0.5-6.4-3.5-6.4-9c0-6.9,4.3-9.3,8.1-9.3c4,0,7.6,2.5,7.6,9.3C151.9,90.7,149.9,93.8,146.2,94.8z M144.2,92.6
				c3.4,0,4.4-3.2,4.4-6.5c0-2.8-0.7-6.6-4.5-6.6c-3.5,0-4.6,3.2-4.6,6.4C139.5,89,140.3,92.6,144.2,92.6z"/>
			<path class="st1" d="M168.2,95h-4.4v-1.8c-0.9,1.3-2.6,2.1-4.4,2.1c-2.7,0-4.2-1.5-4.2-4.7v-6.2c0-0.6-0.2-0.7-0.7-0.8l-0.9-0.1
				v-2.2h4.8V90c0,1.6,0.3,2.9,2,2.9c1.9,0,2.9-1.3,2.9-2.7v-5.7c0-0.6-0.2-0.8-0.7-0.8l-0.9-0.1v-2.2h4.8V92c0,0.6,0.2,0.7,0.7,0.8
				l0.9,0.1V95z"/>
			<path class="st1" d="M174.7,92.8l1.5,0.1V95h-6.4v-2.1l0.9-0.1c0.5-0.1,0.8-0.2,0.8-0.9v-7.5c0-0.6-0.2-0.8-0.7-0.8l-0.9-0.1
				v-2.2h4.8V92.8z M172.9,75.6c1.2,0,2.1,0.9,2.1,2s-0.9,2-2.1,2c-1.2,0-2.1-0.8-2.1-2S171.6,75.6,172.9,75.6z"/>
			<path class="st1" d="M178,95v-2.1l6.9-9.1h-3.4c-0.8,0-0.9,0.4-0.9,0.9v0.9l-2.5-0.2v-4.1h10.7v1.8l-7,9.3h3.8
				c0.6,0,0.8-0.4,0.8-0.9v-1.1l2.5,0.2V95H178z"/>
		</g>
		<g id="Group">
			<g class="st0">
				<path class="st1" d="M59.1,34.4c0.4,0.7,0.9,1.3,1.5,1.7c0.6,0.4,1.3,0.8,2.2,1c0.8,0.2,1.7,0.3,2.6,0.3c0.6,0,1.2,0,1.9-0.2
					s1.3-0.3,1.9-0.6c0.6-0.3,1.1-0.7,1.5-1.2c0.4-0.5,0.6-1.1,0.6-1.9c0-0.8-0.3-1.5-0.8-2c-0.5-0.5-1.2-0.9-2.1-1.3
					c-0.9-0.3-1.8-0.6-2.9-0.9c-1.1-0.3-2.2-0.5-3.3-0.9c-1.1-0.3-2.3-0.6-3.4-1.1c-1.1-0.4-2.1-1-2.9-1.6c-0.9-0.7-1.6-1.5-2.1-2.5
					c-0.5-1-0.8-2.2-0.8-3.6c0-1.6,0.3-2.9,1-4.1c0.7-1.2,1.6-2.1,2.6-2.9c1.1-0.8,2.3-1.3,3.7-1.7c1.4-0.4,2.8-0.6,4.1-0.6
					c1.6,0,3.1,0.2,4.6,0.5c1.5,0.4,2.8,0.9,3.9,1.7c1.1,0.8,2.1,1.8,2.7,3.1c0.7,1.2,1,2.8,1,4.5h-6.5c-0.1-0.9-0.3-1.7-0.6-2.3
					c-0.3-0.6-0.8-1.1-1.3-1.4c-0.5-0.3-1.2-0.6-1.9-0.7c-0.7-0.1-1.5-0.2-2.3-0.2c-0.5,0-1.1,0.1-1.6,0.2c-0.5,0.1-1,0.3-1.5,0.6
					c-0.4,0.3-0.8,0.6-1.1,1.1s-0.4,1-0.4,1.6c0,0.6,0.1,1.1,0.3,1.5c0.2,0.4,0.7,0.7,1.4,1c0.7,0.3,1.6,0.6,2.8,0.9
					s2.7,0.7,4.7,1.2c0.6,0.1,1.4,0.3,2.4,0.6c1,0.3,2,0.8,3,1.4c1,0.7,1.9,1.5,2.6,2.6s1.1,2.5,1.1,4.2c0,1.4-0.3,2.7-0.8,3.9
					c-0.5,1.2-1.4,2.2-2.4,3.1c-1.1,0.9-2.4,1.6-4,2c-1.6,0.5-3.4,0.7-5.5,0.7c-1.7,0-3.3-0.2-4.9-0.6c-1.6-0.4-3-1.1-4.2-2
					c-1.2-0.9-2.2-2-2.9-3.4c-0.7-1.4-1.1-3-1-4.9h6.5C58.6,32.8,58.8,33.7,59.1,34.4z"/>
				<path class="st1" d="M93.4,19.8v4.1H89v11c0,1,0.2,1.7,0.5,2.1c0.3,0.3,1,0.5,2.1,0.5c0.3,0,0.7,0,1,0s0.6-0.1,0.9-0.1V42
					c-0.5,0.1-1.1,0.1-1.7,0.2c-0.6,0-1.2,0-1.8,0c-0.9,0-1.8-0.1-2.7-0.2c-0.8-0.1-1.6-0.4-2.2-0.8c-0.6-0.4-1.2-0.9-1.5-1.6
					C83,39,82.9,38.1,82.9,37V23.9h-3.7v-4.1h3.7v-6.7H89v6.7H93.4z"/>
				<path class="st1" d="M102.9,36.7c0.9,0.9,2.2,1.3,4,1.3c1.2,0,2.3-0.3,3.2-0.9c0.9-0.6,1.4-1.3,1.6-2h5.4
					c-0.9,2.7-2.2,4.6-4,5.7c-1.8,1.1-3.9,1.7-6.5,1.7c-1.7,0-3.3-0.3-4.7-0.8c-1.4-0.6-2.6-1.4-3.6-2.4s-1.7-2.3-2.3-3.7
					c-0.5-1.4-0.8-3-0.8-4.7c0-1.7,0.3-3.2,0.8-4.6c0.5-1.4,1.3-2.7,2.3-3.7c1-1,2.2-1.9,3.6-2.5c1.4-0.6,2.9-0.9,4.6-0.9
					c1.9,0,3.5,0.4,4.9,1.1c1.4,0.7,2.6,1.7,3.5,2.9c0.9,1.2,1.6,2.6,2,4.2c0.4,1.6,0.5,3.2,0.4,4.9h-16
					C101.5,34.3,102,35.8,102.9,36.7z M109.8,25c-0.7-0.8-1.8-1.2-3.3-1.2c-1,0-1.8,0.2-2.4,0.5c-0.6,0.3-1.2,0.7-1.5,1.2
					c-0.4,0.5-0.7,1-0.8,1.5c-0.2,0.5-0.2,1-0.3,1.5h9.9C111,27,110.5,25.8,109.8,25z"/>
				<path class="st1" d="M126.9,19.8v3.1h0.1c0.8-1.3,1.8-2.2,3-2.8c1.2-0.6,2.5-0.9,3.8-0.9c1.6,0,3,0.2,4,0.7s1.9,1.1,2.5,1.8
					c0.6,0.8,1,1.7,1.3,2.9c0.2,1.1,0.4,2.4,0.4,3.8V42h-6.1V29.4c0-1.8-0.3-3.2-0.9-4.1c-0.6-0.9-1.6-1.4-3.1-1.4
					c-1.7,0-2.9,0.5-3.6,1.5c-0.7,1-1.1,2.6-1.1,4.9V42H121V19.8H126.9z"/>
				<path class="st1" d="M146.7,26.1c0.5-1.4,1.3-2.7,2.3-3.7c1-1,2.2-1.8,3.6-2.4c1.4-0.6,3-0.8,4.7-0.8c1.7,0,3.3,0.3,4.8,0.8
					c1.4,0.6,2.6,1.3,3.6,2.4c1,1,1.8,2.3,2.3,3.7c0.5,1.4,0.8,3.1,0.8,4.8s-0.3,3.4-0.8,4.8c-0.5,1.4-1.3,2.7-2.3,3.7
					c-1,1-2.2,1.8-3.6,2.3s-3,0.8-4.8,0.8c-1.8,0-3.3-0.3-4.7-0.8c-1.4-0.5-2.6-1.3-3.6-2.3c-1-1-1.8-2.2-2.3-3.7
					c-0.5-1.4-0.8-3-0.8-4.8S146.1,27.5,146.7,26.1z M152.2,33.5c0.2,0.8,0.5,1.6,0.9,2.3c0.4,0.7,1,1.2,1.7,1.6
					c0.7,0.4,1.5,0.6,2.6,0.6c1,0,1.9-0.2,2.6-0.6s1.3-0.9,1.7-1.6c0.4-0.7,0.7-1.4,0.9-2.3s0.3-1.7,0.3-2.6s-0.1-1.8-0.3-2.6
					c-0.2-0.9-0.5-1.6-0.9-2.3c-0.4-0.7-1-1.2-1.7-1.6c-0.7-0.4-1.6-0.6-2.6-0.6c-1,0-1.9,0.2-2.6,0.6c-0.7,0.4-1.2,1-1.7,1.6
					c-0.4,0.7-0.7,1.4-0.9,2.3c-0.2,0.9-0.3,1.7-0.3,2.6S152,32.7,152.2,33.5z"/>
			</g>
			<g class="st0">
				<path class="st2" d="M15.6,37.2l8.9,26h0.1l8.4-26h11.7V75h-7.8V48.2h-0.1L27.5,75h-6.4l-9.3-26.6h-0.1V75H3.9V37.2H15.6z"/>
				<path class="st2" d="M69.8,75v-3.8h-0.2c-1,1.6-2.2,2.7-3.7,3.4c-1.5,0.7-3.1,1.1-4.7,1.1c-2,0-3.7-0.3-5-0.8
					c-1.3-0.5-2.3-1.3-3-2.3s-1.3-2.2-1.6-3.6c-0.3-1.4-0.5-2.9-0.5-4.6V47.6h7.5v15.5c0,2.3,0.4,3.9,1.1,5.1c0.7,1.1,2,1.7,3.8,1.7
					c2,0,3.5-0.6,4.5-1.8c0.9-1.2,1.4-3.2,1.4-6V47.6h7.5V75H69.8z"/>
				<path class="st2" d="M89,68.2c0.3,0.6,0.8,1.1,1.3,1.4c0.5,0.4,1.1,0.6,1.8,0.8c0.7,0.2,1.4,0.3,2.1,0.3c0.5,0,1.1-0.1,1.7-0.2
					c0.6-0.1,1.1-0.3,1.6-0.6c0.5-0.3,0.9-0.6,1.2-1.1c0.3-0.4,0.5-1,0.5-1.7c0-1.1-0.8-2-2.3-2.5c-1.5-0.6-3.6-1.1-6.3-1.7
					c-1.1-0.2-2.2-0.5-3.2-0.9c-1-0.3-2-0.8-2.8-1.3c-0.8-0.5-1.5-1.2-2-2.1c-0.5-0.8-0.7-1.8-0.7-3c0-1.8,0.3-3.2,1-4.3
					c0.7-1.1,1.6-2,2.7-2.7c1.1-0.7,2.4-1.1,3.8-1.4c1.4-0.3,2.9-0.4,4.3-0.4c1.5,0,2.9,0.1,4.3,0.4c1.4,0.3,2.6,0.8,3.7,1.4
					c1.1,0.7,2,1.6,2.7,2.7s1.2,2.5,1.3,4.2h-7.2c-0.1-1.4-0.7-2.4-1.6-2.9c-1-0.5-2.2-0.8-3.5-0.8c-0.4,0-0.9,0-1.4,0.1
					c-0.5,0.1-0.9,0.2-1.4,0.3c-0.4,0.2-0.8,0.4-1,0.8c-0.3,0.3-0.4,0.8-0.4,1.4c0,0.7,0.2,1.2,0.7,1.6c0.5,0.4,1.1,0.8,1.9,1
					c0.8,0.3,1.7,0.5,2.7,0.7c1,0.2,2.1,0.4,3.1,0.7c1.1,0.2,2.2,0.5,3.2,0.9c1,0.4,2,0.8,2.8,1.4c0.8,0.6,1.5,1.3,2,2.2
					c0.5,0.9,0.7,1.9,0.7,3.2c0,1.8-0.4,3.3-1.1,4.5s-1.7,2.2-2.8,2.9s-2.5,1.3-4,1.6s-3,0.5-4.6,0.5c-1.6,0-3.1-0.2-4.7-0.5
					c-1.5-0.3-2.9-0.8-4.1-1.6c-1.2-0.7-2.2-1.7-2.9-2.9c-0.8-1.2-1.2-2.7-1.2-4.6h7.2C88.5,66.9,88.6,67.6,89,68.2z"/>
				<path class="st2" d="M119.1,68.4c1.1,1.1,2.8,1.6,4.9,1.6c1.5,0,2.8-0.4,3.9-1.1s1.8-1.6,2-2.4h6.6c-1.1,3.3-2.7,5.6-4.9,7
					c-2.2,1.4-4.8,2.1-8,2.1c-2.2,0-4.1-0.3-5.8-1c-1.7-0.7-3.2-1.7-4.4-2.9c-1.2-1.3-2.1-2.8-2.8-4.6c-0.7-1.8-1-3.7-1-5.8
					c0-2,0.3-4,1-5.7c0.7-1.8,1.6-3.3,2.9-4.6c1.2-1.3,2.7-2.3,4.4-3c1.7-0.7,3.6-1.1,5.7-1.1c2.3,0,4.4,0.5,6.1,1.4
					c1.7,0.9,3.2,2.1,4.3,3.6c1.1,1.5,1.9,3.3,2.4,5.2s0.7,4,0.5,6.1h-19.8C117.4,65.6,118,67.3,119.1,68.4z M127.7,54
					c-0.9-1-2.3-1.5-4.1-1.5c-1.2,0-2.2,0.2-3,0.6c-0.8,0.4-1.4,0.9-1.9,1.5c-0.5,0.6-0.8,1.2-1,1.9c-0.2,0.7-0.3,1.3-0.3,1.8h12.2
					C129.2,56.5,128.6,55,127.7,54z"/>
				<path class="st2" d="M149.6,68.4c1.1,1.1,2.8,1.6,4.9,1.6c1.5,0,2.8-0.4,3.9-1.1c1.1-0.8,1.8-1.6,2-2.4h6.6
					c-1.1,3.3-2.7,5.6-4.9,7c-2.2,1.4-4.8,2.1-8,2.1c-2.2,0-4.1-0.3-5.8-1c-1.7-0.7-3.2-1.7-4.4-2.9c-1.2-1.3-2.1-2.8-2.8-4.6
					c-0.7-1.8-1-3.7-1-5.8c0-2,0.3-4,1-5.7c0.7-1.8,1.6-3.3,2.9-4.6c1.2-1.3,2.7-2.3,4.4-3s3.6-1.1,5.7-1.1c2.3,0,4.4,0.5,6.1,1.4
					c1.7,0.9,3.2,2.1,4.3,3.6c1.1,1.5,1.9,3.3,2.4,5.2c0.5,1.9,0.7,4,0.5,6.1h-19.8C147.8,65.6,148.4,67.3,149.6,68.4z M158.1,54
					c-0.9-1-2.3-1.5-4.1-1.5c-1.2,0-2.2,0.2-3,0.6s-1.4,0.9-1.9,1.5c-0.5,0.6-0.8,1.2-1,1.9c-0.2,0.7-0.3,1.3-0.3,1.8H160
					C159.6,56.5,159,55,158.1,54z"/>
				<path class="st2" d="M187,47.6v5h-5.5v13.6c0,1.3,0.2,2.1,0.6,2.5s1.3,0.6,2.5,0.6c0.4,0,0.8,0,1.2-0.1s0.8-0.1,1.1-0.2V75
					c-0.6,0.1-1.3,0.2-2.1,0.2s-1.5,0.1-2.3,0.1c-1.2,0-2.3-0.1-3.3-0.2c-1-0.2-2-0.5-2.8-0.9c-0.8-0.5-1.4-1.1-1.9-2
					c-0.5-0.8-0.7-2-0.7-3.3V52.6h-4.6v-5h4.6v-8.2h7.5v8.2H187z"/>
			</g>
		</g>
	</g>
</g>
</svg>
